<svg width="171" height="114" fill="none" xmlns="http://www.w3.org/2000/svg"><g opacity=".3"><path d="M40.05 113.1c-11.4 0-23.25-4.05-30.9-13.05C1.5 90.45 0 82.5 0 70.2V43.65c0-12 1.2-19.95 9.15-29.85C16.2 5.4 27.9.45 40.05.75c11.4-.3 23.1 3.9 30.9 13.05 7.8 9.15 9.15 17.55 9.15 29.85V70.2c0 11.7-1.35 20.55-9.15 29.85-7.65 8.85-18.75 13.05-30.9 13.05zm0-93.15c-6.75-.15-13.35 3.9-16.65 9.75-2.4 4.05-2.55 8.25-2.55 13.95V70.2c0 5.1-.15 10.2 3 14.85 3.6 5.4 9.75 9 16.2 8.85 6.6.15 12.9-3.45 16.35-9 3-4.35 2.85-8.25 2.85-14.7V43.65c0-5.4.3-8.7-2.25-13.8-3.3-6-10.05-10.05-16.95-9.9z" fill="url(#paint0_linear)"/><path d="M164.199 55.8c-4.35-5.7-10.2-10.2-17.85-12.45l21.9-20.4V3h-67.5v19.2h40.35l-26.1 24.15 9.15 16.05c2.55-1.5 5.4-2.4 8.4-2.4 4.5 0 8.7 1.35 12 4.65 3.3 3.3 4.95 7.8 4.95 12.3 0 4.35-1.8 8.7-4.95 11.85-3.15 3.15-7.5 4.95-12 4.95s-8.85-1.8-12-4.95c-2.1-2.1-3.45-4.65-4.2-7.5l-19.8 5.25c1.8 6.3 5.25 12 9.9 16.35 7.05 6.6 16.65 10.35 26.1 10.05 9.45.3 19.05-3.3 26.1-9.9 7.05-6.6 11.25-16.35 11.55-26.1.3-7.5-1.95-14.85-6-21.15z" fill="url(#paint1_linear)"/></g><defs><linearGradient id="paint0_linear" x1="170.226" y1="113.1" x2="-4.419" y2="105.751" gradientUnits="userSpaceOnUse"><stop stop-color="#45BCC4"/><stop offset="1" stop-color="#60C56A"/></linearGradient><linearGradient id="paint1_linear" x1="170.226" y1="113.1" x2="-4.419" y2="105.751" gradientUnits="userSpaceOnUse"><stop stop-color="#45BCC4"/><stop offset="1" stop-color="#60C56A"/></linearGradient></defs></svg>