<svg width="135" height="114" fill="none" xmlns="http://www.w3.org/2000/svg"><g opacity=".3"><path d="M40.05 113.1c-11.4 0-23.25-4.05-30.9-13.05C1.5 90.45 0 82.5 0 70.2V43.65c0-12 1.2-19.95 9.15-29.85C16.2 5.4 27.9.45 40.05.75c11.4-.3 23.1 3.9 30.9 13.05 7.8 9.15 9.15 17.55 9.15 29.85V70.2c0 11.7-1.35 20.55-9.15 29.85-7.65 8.85-18.75 13.05-30.9 13.05zm0-93.15c-6.75-.15-13.35 3.9-16.65 9.75-2.4 4.05-2.55 8.25-2.55 13.95V70.2c0 5.1-.15 10.2 3 14.85 3.6 5.4 9.75 9 16.2 8.85 6.6.15 12.9-3.45 16.35-9 3-4.35 2.85-8.25 2.85-14.7V43.65c0-5.4.3-8.7-2.25-13.8-3.3-6-10.05-10.05-16.95-9.9z" fill="url(#paint0_linear)"/><path d="M113.799 3l-20.25 12.15v22.5L113.8 25.2V111h20.85V3h-20.85z" fill="url(#paint1_linear)"/></g><defs><linearGradient id="paint0_linear" x1="134.649" y1="113.1" x2="-3.587" y2="108.499" gradientUnits="userSpaceOnUse"><stop stop-color="#45BCC4"/><stop offset="1" stop-color="#60C56A"/></linearGradient><linearGradient id="paint1_linear" x1="134.649" y1="113.1" x2="-3.587" y2="108.499" gradientUnits="userSpaceOnUse"><stop stop-color="#45BCC4"/><stop offset="1" stop-color="#60C56A"/></linearGradient></defs></svg>